<svg id="Layer_1" enable-background="new 0 0 256 256" height="512" viewBox="0 0 256 256" width="512" xmlns="http://www.w3.org/2000/svg"><path d="m173.274 97.657h-90.548c-1.933 0-3.5-1.567-3.5-3.5s1.567-3.5 3.5-3.5h90.549c1.933 0 3.5 1.567 3.5 3.5s-1.568 3.5-3.501 3.5z" fill="#3762cc"/><path d="m131.928 169.822h-7.855c-3.034 0-5.493-2.46-5.493-5.493v-55.905c0-3.034 2.459-5.493 5.493-5.493h7.855c3.034 0 5.493 2.46 5.493 5.493v55.905c0 3.033-2.459 5.493-5.493 5.493z" fill="#a4c9ff"/><path d="m131.928 171.822h-7.855c-4.132 0-7.493-3.361-7.493-7.493v-55.905c0-4.132 3.361-7.493 7.493-7.493h7.855c4.132 0 7.493 3.361 7.493 7.493v55.905c0 4.131-3.361 7.493-7.493 7.493zm-7.856-66.892c-1.926 0-3.493 1.567-3.493 3.493v55.905c0 1.926 1.567 3.493 3.493 3.493h7.855c1.926 0 3.493-1.567 3.493-3.493v-55.905c0-1.926-1.567-3.493-3.493-3.493z" fill="#3762cc"/><path d="m128 120.233c-17.736 0-32.113-14.377-32.113-32.113v-44.679c0-17.736 14.377-32.113 32.113-32.113 17.736 0 32.113 14.377 32.113 32.113v44.679c0 17.736-14.377 32.113-32.113 32.113z" fill="#e0ebfc"/><path d="m142.162 79.743c-3.084 0-5.585 2.501-5.585 5.585s2.5 5.585 5.585 5.585h17.822c.079-.921.129-1.851.129-2.792v-8.377h-17.951z" fill="#a4c9ff"/><path d="m160.113 60.196h-17.951c-3.084 0-5.585 2.501-5.585 5.585s2.5 5.585 5.585 5.585h17.951z" fill="#a4c9ff"/><path d="m136.578 46.234c0 3.084 2.5 5.585 5.585 5.585h17.951v-8.377c0-.942-.049-1.871-.129-2.792h-17.822c-3.085-.001-5.585 2.499-5.585 5.584z" fill="#a4c9ff"/><path d="m113.838 79.743h-17.951v8.377c0 .941.049 1.871.129 2.792h17.822c3.084 0 5.585-2.501 5.585-5.585-.001-3.084-2.501-5.584-5.585-5.584z" fill="#a4c9ff"/><path d="m113.838 60.196h-17.951v11.17h17.951c3.084 0 5.585-2.501 5.585-5.585-.001-3.085-2.501-5.585-5.585-5.585z" fill="#a4c9ff"/><path d="m113.838 40.649h-17.823c-.079.921-.129 1.85-.129 2.792v8.377h17.951c3.084 0 5.585-2.501 5.585-5.585s-2.5-5.584-5.584-5.584z" fill="#a4c9ff"/><path d="m128 122.233c-18.811 0-34.113-15.303-34.113-34.113v-44.679c0-18.81 15.303-34.113 34.113-34.113s34.113 15.303 34.113 34.113v44.679c0 18.81-15.302 34.113-34.113 34.113zm0-108.905c-16.604 0-30.113 13.509-30.113 30.113v44.679c0 16.604 13.509 30.113 30.113 30.113s30.113-13.509 30.113-30.113v-44.679c0-16.604-13.509-30.113-30.113-30.113z" fill="#3762cc"/><path d="m128 144.383c-27.695 0-50.226-22.531-50.226-50.226v-14.809c0-2.735 2.218-4.952 4.952-4.952s4.952 2.217 4.952 4.952v14.808c0 22.234 18.089 40.322 40.322 40.322s40.322-18.089 40.322-40.322v-14.1c0-2.735 2.218-4.952 4.952-4.952s4.952 2.217 4.952 4.952v14.101c0 27.695-22.531 50.226-50.226 50.226z" fill="#6bdddd"/><path d="m128 146.383c-28.798 0-52.227-23.429-52.227-52.226v-14.809c0-3.833 3.119-6.952 6.952-6.952s6.952 3.119 6.952 6.952v14.809c0 21.131 17.191 38.322 38.322 38.322s38.322-17.191 38.322-38.322v-14.101c0-3.833 3.119-6.952 6.952-6.952s6.952 3.119 6.952 6.952v14.101c.002 28.797-23.427 52.226-52.225 52.226zm-45.274-69.987c-1.628 0-2.952 1.324-2.952 2.952v14.809c0 26.592 21.635 48.226 48.227 48.226s48.227-21.634 48.227-48.226v-14.101c0-1.627-1.324-2.952-2.952-2.952s-2.952 1.324-2.952 2.952v14.101c0 23.336-18.985 42.322-42.322 42.322s-42.322-18.986-42.322-42.322v-14.809c-.002-1.627-1.326-2.952-2.954-2.952z" fill="#3762cc"/><g fill="#6bdddd"><path d="m44.075 76.218c-1.821 0-3.296-1.476-3.296-3.296v-49.441c0-1.82 1.475-3.296 3.296-3.296s3.296 1.476 3.296 3.296v49.441c0 1.82-1.475 3.296-3.296 3.296z"/><path d="m29.73 70.792c-1.821 0-3.296-1.476-3.296-3.296v-38.588c0-1.82 1.475-3.296 3.296-3.296s3.296 1.476 3.296 3.296v38.588c0 1.82-1.476 3.296-3.296 3.296z"/><path d="m15.384 65.003c-1.821 0-3.296-1.476-3.296-3.296v-27.011c0-1.82 1.475-3.296 3.296-3.296s3.296 1.476 3.296 3.296v27.012c0 1.82-1.475 3.295-3.296 3.295z"/><path d="m58.42 70.792c-1.821 0-3.296-1.476-3.296-3.296v-38.588c0-1.82 1.475-3.296 3.296-3.296s3.296 1.476 3.296 3.296v38.588c0 1.82-1.475 3.296-3.296 3.296z"/><path d="m72.764 65.003c-1.821 0-3.296-1.476-3.296-3.296v-27.011c0-1.82 1.475-3.296 3.296-3.296s3.296 1.476 3.296 3.296v27.012c0 1.82-1.475 3.295-3.296 3.295z"/><path d="m211.925 76.218c-1.821 0-3.296-1.476-3.296-3.296v-49.441c0-1.82 1.475-3.296 3.296-3.296s3.296 1.476 3.296 3.296v49.441c0 1.82-1.475 3.296-3.296 3.296z"/><path d="m197.58 70.792c-1.821 0-3.296-1.476-3.296-3.296v-38.588c0-1.82 1.475-3.296 3.296-3.296s3.296 1.476 3.296 3.296v38.588c0 1.82-1.475 3.296-3.296 3.296z"/><path d="m183.236 65.003c-1.821 0-3.296-1.476-3.296-3.296v-27.011c0-1.82 1.475-3.296 3.296-3.296s3.296 1.476 3.296 3.296v27.012c0 1.82-1.475 3.295-3.296 3.295z"/><path d="m226.27 70.792c-1.821 0-3.296-1.476-3.296-3.296v-38.588c0-1.82 1.475-3.296 3.296-3.296s3.296 1.476 3.296 3.296v38.588c0 1.82-1.475 3.296-3.296 3.296z"/><path d="m240.616 65.003c-1.821 0-3.296-1.476-3.296-3.296v-27.011c0-1.82 1.475-3.296 3.296-3.296s3.296 1.476 3.296 3.296v27.012c0 1.82-1.476 3.295-3.296 3.295z"/><path d="m84.052 58.09c-1.821 0-3.296-1.476-3.296-3.296v-13.185c0-1.82 1.475-3.296 3.296-3.296s3.296 1.476 3.296 3.296v13.184c.001 1.821-1.475 3.297-3.296 3.297z"/><path d="m171.948 58.09c-1.821 0-3.296-1.476-3.296-3.296v-13.185c0-1.82 1.475-3.296 3.296-3.296s3.296 1.476 3.296 3.296v13.184c0 1.821-1.476 3.297-3.296 3.297z"/></g><path d="m204.933 244.33h-153.866c-5.243 0-9.493-4.25-9.493-9.493v-48.099c0-5.243 4.25-9.493 9.493-9.493h153.865c5.243 0 9.493 4.25 9.493 9.493v48.099c.001 5.243-4.25 9.493-9.492 9.493z" fill="#4671c6"/><path d="m204.933 246.33h-153.866c-6.337 0-11.493-5.156-11.493-11.493v-48.099c0-6.337 5.156-11.493 11.493-11.493h153.865c6.337 0 11.493 5.156 11.493 11.493v48.099c.001 6.337-5.155 11.493-11.492 11.493zm-153.866-67.085c-4.132 0-7.493 3.361-7.493 7.493v48.099c0 4.131 3.361 7.493 7.493 7.493h153.865c4.132 0 7.493-3.361 7.493-7.493v-48.099c0-4.132-3.361-7.493-7.493-7.493z" fill="#3762cc"/><path d="m79.259 224.733h-15.759v-26.506c0-1.873-.503-3.322-1.496-4.306-.99-.98-2.279-1.476-3.831-1.476-1.542 0-2.817.506-3.788 1.503-.965.989-1.454 2.429-1.454 4.279v29.232c0 1.974.521 3.461 1.548 4.418 1.019.953 2.549 1.416 4.677 1.416h20.105c1.624 0 2.909-.377 3.819-1.119.968-.787 1.48-1.871 1.48-3.135 0-1.239-.511-2.323-1.48-3.138-.928-.775-2.212-1.168-3.821-1.168z" fill="#f9cfcf"/><path d="m95.605 192.446c-1.52 0-2.79.504-3.771 1.499-.977.99-1.472 2.431-1.472 4.283v29.905c0 1.852.501 3.298 1.486 4.297.991 1.003 2.255 1.512 3.757 1.512 1.554 0 2.844-.503 3.837-1.494.989-.991 1.491-2.442 1.491-4.314v-29.905c0-1.873-.503-3.322-1.496-4.306-.991-.981-2.28-1.477-3.832-1.477z" fill="#f9cfcf"/><path d="m143.202 193.072c-.77-.416-1.614-.626-2.509-.626-1.217 0-2.218.289-2.976.861-.709.535-1.229 1.157-1.546 1.847-.256.552-.626 1.501-1.13 2.897l-8.285 22.746-8.249-22.552c-.658-1.881-1.3-3.235-1.963-4.138-.809-1.103-2.128-1.662-3.919-1.662-1.449 0-2.68.469-3.659 1.394-.994.941-1.499 2.025-1.499 3.223 0 .44.07.942.214 1.533.136.558.304 1.084.502 1.56.173.42.342.849.514 1.309l9.777 24.575c.36.964.722 1.876 1.082 2.734.386.92.848 1.757 1.371 2.485.578.806 1.342 1.461 2.27 1.946.934.488 2.066.736 3.365.736 1.303 0 2.439-.254 3.374-.754.924-.494 1.68-1.141 2.247-1.926.516-.717.974-1.55 1.359-2.478.359-.866.718-1.78 1.07-2.718l9.964-24.83c.165-.441.331-.87.495-1.284.186-.466.343-.948.465-1.432.135-.528.204-1.035.204-1.508 0-.767-.233-1.522-.694-2.246-.449-.704-1.069-1.273-1.844-1.692z" fill="#f9cfcf"/><path d="m184.526 226.047c-.869-.734-2.107-1.106-3.682-1.106h-18.281v-8.554h16.151c1.565 0 2.777-.369 3.601-1.096.854-.753 1.305-1.773 1.305-2.951 0-1.188-.463-2.206-1.339-2.943-.832-.698-2.032-1.052-3.567-1.052h-16.151v-7.078h17.637c1.592 0 2.831-.363 3.682-1.08.893-.754 1.365-1.798 1.365-3.019 0-1.204-.472-2.239-1.366-2.994-.85-.716-2.089-1.079-3.681-1.079h-21.983c-1.323 0-2.446.191-3.338.567-1.005.424-1.756 1.115-2.232 2.052-.435.854-.655 1.936-.655 3.215v28.533c0 1.973.52 3.459 1.548 4.419 1.02.952 2.55 1.415 4.678 1.415h22.627c1.575 0 2.814-.372 3.682-1.106.911-.77 1.393-1.823 1.393-3.045 0-1.257-.482-2.327-1.394-3.098z" fill="#f9cfcf"/><ellipse cx="196.943" cy="189.635" fill="#f9a7a7" rx="6.127" ry="6.149"/></svg>