<?xml version="1.0" standalone="no"?><svg xmlns="http://www.w3.org/2000/svg" viewBox="0 0 1440 320"><path fill="rgb(0, 0, 0, 0.1)" fill-opacity="1" d="M0,192L26.7,208C53.3,224,107,256,160,250.7C213.3,245,267,203,320,165.3C373.3,128,427,96,480,101.3C533.3,107,587,149,640,160C693.3,171,747,149,800,122.7C853.3,96,907,64,960,48C1013.3,32,1067,32,1120,58.7C1173.3,85,1227,139,1280,170.7C1333.3,203,1387,213,1413,218.7L1440,224L1440,320L1413.3,320C1386.7,320,1333,320,1280,320C1226.7,320,1173,320,1120,320C1066.7,320,1013,320,960,320C906.7,320,853,320,800,320C746.7,320,693,320,640,320C586.7,320,533,320,480,320C426.7,320,373,320,320,320C266.7,320,213,320,160,320C106.7,320,53,320,27,320L0,320Z"></path></svg>